Coordinates
version=1
nRows=14
nColumns=36
inDegrees=yes

Units are S.I. units (second, meters, Newtons, ...)
If the header above contains a line with 'inDegrees', this indicates whether rotational values are in degrees (yes) or radians (no).

endheader
time	pelvis_tilt	pelvis_list	pelvis_rotation	pelvis_tx	pelvis_ty	pelvis_tz	hip_flexion_r	hip_adduction_r	hip_rotation_r	knee_angle_r	knee_angle_r_beta	ankle_angle_r	subtalar_angle_r	mtp_angle_r	hip_flexion_l	hip_adduction_l	hip_rotation_l	knee_angle_l	knee_angle_l_beta	ankle_angle_l	subtalar_angle_l	mtp_angle_l	lumbar_extension	lumbar_bending	lumbar_rotation	arm_flex_r	arm_add_r	arm_rot_r	elbow_flex_r	pro_sup_r	arm_flex_l	arm_add_l	arm_rot_l	elbow_flex_l	pro_sup_l
      9.60000000	    -25.24807486	     -5.00537359	     -1.38214647	     -0.25439871	      0.74116765	     -0.57814453	     72.13568095	     -8.31937235	     -4.87313510	     74.94705891	      1.30807294	     27.32773380	     -7.97374973	     -7.49999987	     75.98940886	    -12.83587029	      7.23763178	     76.85707573	      1.34140903	     27.72883640	     -3.83005485	     -7.49999987	    -17.59544399	      6.26938358	     -1.51828432	     39.83367366	    -29.18718233	      5.10370164	    130.75600571	     97.06175881	     30.20992083	    -22.14958145	      7.16389372	    136.85652575	     92.09800008
      9.61000000	    -24.90222473	     -4.94135686	     -1.31928774	     -0.25209706	      0.74800904	     -0.57797389	     70.80258973	     -8.17817016	     -4.98715619	     73.53740846	      1.28346990	     26.17472064	     -9.15342004	     -7.49999987	     74.56679752	    -12.78766513	      6.96796900	     75.41353319	      1.31621445	     26.83307108	     -4.70808005	     -7.49999987	    -17.21469254	      6.21428745	     -1.78912048	     38.39538714	    -28.91762873	      5.40876635	    130.50852049	     96.85740314	     28.35483202	    -21.62964796	      6.52373471	    136.80552777	     91.93211895
      9.62000000	    -24.66268760	     -4.90958908	     -1.26190667	     -0.24950379	      0.75451517	     -0.57777409	     69.58050326	     -8.12414073	     -5.20708893	     72.26448396	      1.26125318	     26.00885646	     -9.02755411	     -7.49999987	     73.32004546	    -12.82736063	      6.67205908	     74.14484310	      1.29407164	     26.65415766	     -4.59342464	     -7.49999987	    -16.59902137	      6.13550165	     -1.92681827	     36.60055790	    -28.97090099	      5.94335040	    130.33099794	     96.85727288	     26.47956169	    -21.08036486	      6.80664474	    136.64560692	     91.92486432
      9.63000000	    -24.15404125	     -4.73298896	     -1.20739826	     -0.24695938	      0.76202403	     -0.57779538	     68.02289568	     -8.11940602	     -5.24514527	     70.77232158	      1.23521003	     25.53894425	     -8.99922712	     -7.49999987	     71.57728180	    -12.75906866	      6.24972757	     72.55778727	      1.26637229	     26.18376472	     -4.72243190	     -7.49999987	    -16.32268419	      5.94298432	     -2.03851544	     34.97507776	    -29.01782914	      6.38397346	    129.98058810	     96.79085028	     24.77170905	    -20.38653262	      6.43131630	    136.05671384	     91.85281200
      9.64000000	    -23.90713782	     -4.67755464	     -1.17521265	     -0.24405641	      0.76900530	     -0.57775435	     66.71778133	     -8.09583115	     -5.49207982	     69.36340142	      1.21061974	     25.31670875	     -8.85843611	     -7.49999987	     70.23557704	    -12.81438965	      5.86285285	     71.17619003	      1.24225886	     25.96498534	     -4.62811619	     -7.49999987	    -15.64784761	      5.86248862	     -2.13254302	     33.02763893	    -29.08507193	      6.97494049	    129.75626941	     96.78787670	     22.55842056	    -20.18610686	      6.91373291	    135.72160134	     91.83174525
      9.65000000	    -23.21389317	     -4.35503409	     -1.39118160	     -0.24110559	      0.77741180	     -0.57686679	     64.92673065	     -7.77942091	     -5.19490661	     67.67795278	      1.18120311	     24.63825961	     -8.97724491	     -7.49999987	     68.07341836	    -13.04875592	      5.04965729	     69.35718408	      1.21051122	     25.35833791	     -4.76441395	     -7.49999987	    -15.52553786	      5.36312380	     -1.98548857	     31.31800463	    -28.72652876	      7.37221564	    129.13030621	     96.71117328	     20.96091128	    -20.00556670	      7.14070881	    134.90969672	     91.67554018
      9.66000000	    -22.76571247	     -4.15786706	     -1.70866223	     -0.23791901	      0.78540652	     -0.57552112	     63.36335735	     -7.34608137	     -5.08005131	     65.99704787	      1.15186578	     24.16313331	     -9.00983566	     -7.49999987	     66.22549753	    -13.43036133	      4.34567098	     67.64510270	      1.18062976	     24.93780597	     -4.71136906	     -7.49999987	    -15.08675217	      4.93831088	     -1.73696136	     29.40451352	    -28.33608573	      7.80411022	    128.64486218	     96.67667677	     19.17728672	    -19.54316211	      7.27564251	    134.20817997	     91.54587443
      9.67000000	    -22.29405576	     -3.98440838	     -1.93721872	     -0.23467481	      0.79350659	     -0.57454808	     61.73131485	     -7.00416145	     -4.98023773	     64.27270189	      1.12177027	     23.58596470	     -9.07166643	     -7.49999987	     64.34923014	    -13.71026590	      3.63259397	     65.86157621	      1.14950136	     24.47261339	     -4.62273389	     -7.49999987	    -14.65221587	      4.60027220	     -1.55282687	     27.49297657	    -28.00783243	      8.20654859	    128.09853899	     96.64226835	     17.46803101	    -18.93754485	      7.33688511	    133.31340909	     91.39286213
      9.68000000	    -21.79193297	     -3.83201828	     -2.00906007	     -0.23138109	      0.80175006	     -0.57423033	     60.01114936	     -6.84562823	     -4.95908989	     62.47520490	      1.09039803	     22.92343106	     -9.13796523	     -7.49999987	     62.43828178	    -13.77980110	      2.99961639	     64.00904818	      1.11716864	     23.93011390	     -4.53578809	     -7.49999987	    -14.19822812	      4.36691264	     -1.48313817	     25.61233014	    -27.73994687	      8.62004806	    127.52288809	     96.61408600	     15.80012010	    -18.34018203	      7.46891685	    132.22462581	     91.22469438
      9.69000000	    -21.18737284	     -3.63882450	     -1.99773959	     -0.22782340	      0.81034308	     -0.57415236	     58.11443084	     -6.81404164	     -4.97993874	     60.60332920	      1.05772763	     22.20979713	     -9.22452991	     -7.49999987	     60.34873624	    -13.70697079	      2.37704173	     62.04850714	      1.08295075	     23.31352034	     -4.54825952	     -7.49999987	    -13.86165421	      4.06441987	     -1.53025154	     23.70741061	    -27.45958602	      9.02695687	    126.91527389	     96.60191646	     14.16177981	    -17.71895320	      7.66461307	    130.99196038	     91.04463855
      9.70000000	    -20.47430317	     -3.40182189	     -1.98340277	     -0.22420736	      0.81924354	     -0.57417542	     56.07937979	     -6.81303786	     -4.93115367	     58.66115997	      1.02383038	     21.45783045	     -9.27662781	     -7.49999987	     58.05775324	    -13.49772836	      1.78089880	     59.95988308	      1.04649738	     22.61226800	     -4.68860736	     -7.49999987	    -13.63513396	      3.78096847	     -1.49334963	     21.87351425	    -27.08481390	      9.38294804	    126.18520923	     96.60548445	     12.62220120	    -17.06857834	      7.79436856	    129.62329690	     90.85259923
      9.71000000	    -19.91732390	     -3.21818306	     -2.00699864	     -0.22057672	      0.82794823	     -0.57401843	     54.15779510	     -6.70804341	     -4.84286334	     56.62131273	      0.98822833	     20.76519449	     -9.22246428	     -7.49999987	     55.90519352	    -13.31449025	      1.31423938	     57.76904529	      1.00826005	     21.91620271	     -4.77883382	     -7.49999987	    -13.21974590	      3.53535814	     -1.47843663	     20.07192729	    -26.66567350	      9.72648675	    125.41504101	     96.61997479	     11.03642064	    -16.45857590	      7.88758843	    128.23768418	     90.67870591
      9.72000000	    -19.26349220	     -2.99760795	     -2.03327217	     -0.21676060	      0.83671542	     -0.57380190	     52.13319387	     -6.64286231	     -4.77473685	     54.58618358	      0.95270863	     19.89431541	     -9.33978905	     -7.49999987	     53.64686125	    -13.16972175	      0.63256840	     55.56538668	      0.96979895	     20.98449012	     -5.01672951	     -7.49999987	    -12.87189536	      3.23096547	     -1.45510119	     18.27673461	    -26.13921882	      9.86475645	    124.54631021	     96.67614953	      9.54416943	    -15.87478592	      7.95831101	    126.65374208	     90.50569250
      9.73000000	    -18.84185511	     -2.83157025	     -2.03673818	     -0.21293724	      0.84505913	     -0.57358123	     50.31214246	     -6.50744017	     -4.64932522	     52.47274048	      0.91582209	     19.13955812	     -9.33021303	     -7.49999987	     51.63876068	    -12.96220378	      0.20964578	     53.30589760	      0.93036342	     20.16086890	     -5.03076170	     -7.49999987	    -12.25996615	      3.01763533	     -1.48736907	     16.47346126	    -25.53264132	      9.95527772	    123.74999214	     96.71285912	      7.95660447	    -15.32765571	      7.99890431	    125.12132949	     90.35132105
